<?xml version="1.0" encoding="UTF-8"?>
<svg version="1.1" xmlns="http://www.w3.org/2000/svg" width="151" height="38">
<path d="M0 0 C1.10472656 -0.00386719 2.20945312 -0.00773438 3.34765625 -0.01171875 C4.50136719 -0.00011719 5.65507812 0.01148438 6.84375 0.0234375 C8.57431641 0.00603516 8.57431641 0.00603516 10.33984375 -0.01171875 C11.44457031 -0.00785156 12.54929687 -0.00398437 13.6875 0 C14.70005859 0.00338379 15.71261719 0.00676758 16.75585938 0.01025391 C19.34375 0.3984375 19.34375 0.3984375 21.17236328 1.56982422 C22.81091518 4.1277137 22.73207754 6.02940172 22.7421875 9.0546875 C22.74798828 10.71177734 22.74798828 10.71177734 22.75390625 12.40234375 C22.74230469 13.55605469 22.73070313 14.70976562 22.71875 15.8984375 C22.73035156 17.05214844 22.74195312 18.20585937 22.75390625 19.39453125 C22.75003906 20.49925781 22.74617188 21.60398437 22.7421875 22.7421875 C22.73880371 23.75474609 22.73541992 24.76730469 22.73193359 25.81054688 C22.34375 28.3984375 22.34375 28.3984375 21.17236328 30.22705078 C18.6144738 31.86560268 16.71278578 31.78676504 13.6875 31.796875 C12.58277344 31.80074219 11.47804688 31.80460937 10.33984375 31.80859375 C9.18613281 31.79699219 8.03242188 31.78539063 6.84375 31.7734375 C5.69003906 31.78503906 4.53632813 31.79664062 3.34765625 31.80859375 C2.24292969 31.80472656 1.13820313 31.80085938 0 31.796875 C-1.01255859 31.79349121 -2.02511719 31.79010742 -3.06835938 31.78662109 C-5.65625 31.3984375 -5.65625 31.3984375 -7.48486328 30.22705078 C-9.12341518 27.6691613 -9.04457754 25.76747328 -9.0546875 22.7421875 C-9.05855469 21.63746094 -9.06242188 20.53273438 -9.06640625 19.39453125 C-9.05480469 18.24082031 -9.04320312 17.08710938 -9.03125 15.8984375 C-9.04285156 14.74472656 -9.05445313 13.59101563 -9.06640625 12.40234375 C-9.06253906 11.29761719 -9.05867187 10.19289063 -9.0546875 9.0546875 C-9.05130371 8.04212891 -9.04791992 7.02957031 -9.04443359 5.98632812 C-8.65625 3.3984375 -8.65625 3.3984375 -7.48486328 1.56982422 C-4.9269738 -0.06872768 -3.02528578 0.01010996 0 0 Z M13.34375 6.3984375 C13.34375 7.7184375 13.34375 9.0384375 13.34375 10.3984375 C14.33375 10.0684375 15.32375 9.7384375 16.34375 9.3984375 C16.34375 8.4084375 16.34375 7.4184375 16.34375 6.3984375 C15.35375 6.3984375 14.36375 6.3984375 13.34375 6.3984375 Z M1.96875 13.0234375 C0.05552592 15.34006873 0.05552592 15.34006873 0.34375 18.4609375 C1.13732399 21.42656367 1.13732399 21.42656367 3.09375 23.3359375 C5.31546873 24.59097086 5.31546873 24.59097086 7.90625 24.3359375 C10.93488016 23.17107975 11.92328798 22.31827609 13.34375 19.3984375 C13.35049926 16.27163651 13.35049926 16.27163651 12.34375 13.3984375 C8.3474482 10.7342363 6.0259083 10.24748708 1.96875 13.0234375 Z " fill="#0079FF" transform="translate(8.65625,3.6015625)"/>
<path d="M0 0 C10.52631579 0 10.52631579 0 14 2 C16 5 16 5 15.9375 8.5 C15 12 15 12 12.75 13.9375 C9.92630625 15.02847258 7.99509228 15.2567222 5 15 C5 17.31 5 19.62 5 22 C3.35 22 1.7 22 0 22 C0 14.74 0 7.48 0 0 Z M5 5 C5 6.65 5 8.3 5 10 C6.65 10 8.3 10 10 10 C10.59070014 8.05396726 10.59070014 8.05396726 11 6 C9.93354885 4.70366379 9.93354885 4.70366379 7.4375 4.9375 C6.633125 4.958125 5.82875 4.97875 5 5 Z " fill="#000000" transform="translate(42,8)"/>
<path d="M0 0 C0 4.95 0 9.9 0 15 C-10.33386255 16.35971876 -10.33386255 16.35971876 -14 14 C-16.09679403 11.30412197 -15.99510821 9.907056 -15.8125 6.4375 C-13.77352615 -2.18892784 -7.61295539 -0.24557921 0 0 Z M-9 4 C-9.66 4.66 -10.32 5.32 -11 6 C-10.67958603 8.60280568 -10.67958603 8.60280568 -10 11 C-8.35 10.67 -6.7 10.34 -5 10 C-4.67 9.01 -4.34 8.02 -4 7 C-4.66 6.01 -5.32 5.02 -6 4 C-6.99 4 -7.98 4 -9 4 Z " fill="#000000" transform="translate(121,15)"/>
<path d="M0 0 C2.5 2.1875 2.5 2.1875 4 5 C3.8125 7.5625 3.8125 7.5625 3 10 C2.87625 10.721875 2.7525 11.44375 2.625 12.1875 C2 14 2 14 -1 16 C-4.33936274 15.82110557 -6.97604532 15.61437281 -9.875 13.875 C-11.69441423 10.84264294 -12 8.52133145 -12 5 C-8.68477735 0.13076673 -5.78802335 -1.05236788 0 0 Z M-6 4 C-6.33 4.66 -6.66 5.32 -7 6 C-5.02 6 -3.04 6 -1 6 C-1.33 5.34 -1.66 4.68 -2 4 C-3.32 4 -4.64 4 -6 4 Z M-6 10 C-4.515 10.99 -4.515 10.99 -3 12 C-2.34 11.34 -1.68 10.68 -1 10 C-2.65 10 -4.3 10 -6 10 Z " fill="#000000" transform="translate(146,15)"/>
<path d="M0 0 C2.4375 1.625 2.4375 1.625 4 4 C4.25 7.25 4.25 7.25 4 10 C3.01 10.495 3.01 10.495 2 11 C2 12.32 2 13.64 2 15 C-4.26535627 16.35135135 -4.26535627 16.35135135 -7.875 14.625 C-10 13 -10 13 -11 12 C-11.57971014 4.92753623 -11.57971014 4.92753623 -9.4375 1.5 C-6.05111671 -0.58392818 -3.90614682 -0.55802097 0 0 Z M-5 4 C-5.33 4.66 -5.66 5.32 -6 6 C-4.35 6 -2.7 6 -1 6 C-1.33 5.34 -1.66 4.68 -2 4 C-2.99 4 -3.98 4 -5 4 Z M-6 10 C-4.515 10.99 -4.515 10.99 -3 12 C-2.01 11.34 -1.02 10.68 0 10 C-1.98 10 -3.96 10 -6 10 Z " fill="#000000" transform="translate(93,15)"/>
<path d="M0 0 C5.53846154 -0.36923077 5.53846154 -0.36923077 7.875 1.5 C8.24625 1.995 8.6175 2.49 9 3 C9.33 2.01 9.66 1.02 10 0 C11.65 0 13.3 0 15 0 C14.690625 0.7425 14.38125 1.485 14.0625 2.25 C13.711875 3.1575 13.36125 4.065 13 5 C12.566875 5.9590625 12.566875 5.9590625 12.125 6.9375 C11.9181477 10.35056293 14.02532311 12.36709748 16 15 C10.375 15.25 10.375 15.25 7 13 C6.67 13.66 6.34 14.32 6 15 C4.02 15 2.04 15 0 15 C0.33515625 14.50371094 0.6703125 14.00742187 1.015625 13.49609375 C2.31974029 11.32119262 3.31874725 9.44825205 4 7 C3.13355366 4.10282005 1.84925575 2.46567433 0 0 Z " fill="#000000" transform="translate(66,15)"/>
<path d="M0 0 C1.65 0 3.3 0 5 0 C5 1.98 5 3.96 5 6 C5.99 6 6.98 6 8 6 C8 7.32 8 8.64 8 10 C7.01 10 6.02 10 5 10 C5 13.63 5 17.26 5 21 C3.35 21 1.7 21 0 21 C0 17.37 0 13.74 0 10 C-0.99 10 -1.98 10 -3 10 C-3 8.68 -3 7.36 -3 6 C-2.01 6 -1.02 6 0 6 C0 4.02 0 2.04 0 0 Z " fill="#000000" transform="translate(126,9)"/>
<path d="M0 0 C1.65 0 3.3 0 5 0 C5 7.26 5 14.52 5 22 C3.35 22 1.7 22 0 22 C0 14.74 0 7.48 0 0 Z " fill="#000000" transform="translate(99,8)"/>
<path d="M0 0 C1.65 0 3.3 0 5 0 C5 4.95 5 9.9 5 15 C3.35 15 1.7 15 0 15 C0 10.05 0 5.1 0 0 Z " fill="#000000" transform="translate(60,15)"/>
<path d="M0 0 C3.53571429 0.53571429 3.53571429 0.53571429 5 2 C5.125 4.5 5.125 4.5 5 7 C4 8 4 8 1.5 8.125 C-1 8 -1 8 -2 7 C-2.1875 4.5625 -2.1875 4.5625 -2 2 C-1.34 1.34 -0.68 0.68 0 0 Z " fill="#0079FF" transform="translate(14,17)"/>
<path d="M0 0 C1.98 0.495 1.98 0.495 4 1 C3.67 2.32 3.34 3.64 3 5 C1.68 5 0.36 5 -1 5 C-0.67 3.35 -0.34 1.7 0 0 Z " fill="#000000" transform="translate(61,8)"/>
</svg>
